<svg width="128.647" height="325.429" xmlns="http://www.w3.org/2000/svg">
 <metadata>Close Hauled (Sailing)Close Hauled (Sailing)boattransportsailingOpen Clip Art ProjectGerald G.Public Domain2005/06/01image/svg+xmlen</metadata>
 <g>
  <title>Layer 1</title>
  <g id="svg_44">
   <path transform="rotate(30.2279 73.065 165.599)" id="svg_11" stroke-width="0.036" stroke-miterlimit="10" stroke="#000000" fill-rule="evenodd" d="m-13.429428,25.666946c-9.216,34.776001 -9.504002,67.608002 -1.007998,100.151993c8.639997,32.544006 29.556,63 51.912001,93.313019c22.283997,30.167999 48.672001,58.5 80.567997,86.398987l48.671997,-28.548004c-8.819992,-41.507996 -20.627991,-78.263977 -36.107986,-112.499969c-15.552002,-34.236023 -32.040009,-67.428024 -56.124008,-90.828018c-24.264008,-23.364014 -53.063997,-38.988007 -87.912004,-47.988007l-0.000001,0l0.000003,0z" clip-rule="evenodd"/>
   <path transform="rotate(30.2279 72.371 166.444)" id="svg_12" stroke-width="0.036" stroke-miterlimit="10" stroke="#000000" fill-rule="evenodd" fill="#00FFFF" d="m-8.981462,33.89238c-9.539997,29.951996 -10.043997,59.579987 -1.655997,90.539993c8.532008,30.85199 30.311997,63.899994 51.876,93.311981c21.456001,29.339996 46.511993,55.872009 76.139999,81.252014l43.919998,-25.776001c-7.884003,-38.016022 -19.044006,-72.575012 -34.307999,-105.768036c-15.229004,-33.15596 -33.768005,-68.831955 -56.447998,-91.331955c-22.860001,-22.356003 -48.996002,-36.28801 -79.524002,-42.227997l-0.000006,0l0.000001,0l0.000001,0l0.000001,0l0.000001,0z" clip-rule="evenodd"/>
   <path transform="rotate(30.2279 66.084 177.928)" id="svg_13" stroke-width="0.036" stroke-miterlimit="10" stroke="#000000" fill-rule="evenodd" d="m12.318489,79.880997l-22.248001,13.068008c2.519997,17.35199 8.603996,36.03598 18.683998,57.312012c10.080002,21.311981 22.32,45.467987 41.183998,68.975983c18.936005,23.399994 42.084,46.29599 70.991997,70.056976l21.168015,-12.42099l0,0.001007c-5.940002,-32.363983 -13.464005,-60.841003 -23.147995,-86.687988c-9.792007,-25.920013 -20.412003,-46.548035 -34.488014,-67.284012c-14.112,-20.736008 -30.311996,-39.240005 -49.428001,-56.339996l-22.715996,13.319z" clip-rule="evenodd"/>
   <path transform="rotate(30.2279 66.087 179.031)" id="svg_14" stroke-width="0.036" stroke-miterlimit="10" stroke="#000000" fill-rule="evenodd" fill="#FFFFFF" d="m13.311325,82.696472l-20.411999,11.988007c3.347996,20.087997 9.936001,40.319992 20.303998,61.811981c10.332001,21.527985 23.112,43.774994 41.256004,65.915985c18.143997,22.067017 40.103996,43.164001 66.851997,64.943024l17.964005,-10.548004c-5.903015,-33.983002 -13.752014,-63.395996 -24.084015,-90.036011c-10.367981,-26.640015 -23.759987,-48.671005 -37.403984,-68.183975c-13.680008,-19.475998 -28.224007,-35.244003 -44.064003,-47.880005l-20.412003,11.988998z" clip-rule="evenodd"/>
   <path transform="rotate(30.2279 69.649 88.718)" id="svg_15" stroke-width="0.036" stroke-miterlimit="10" stroke="#000000" fill-rule="evenodd" d="m38.419022,100.649658c-3.204002,1.871994 -4.931999,4.895996 -3.851997,6.695999c0.575996,0.972 1.115997,1.944 1.692001,2.916c1.079994,1.800003 4.535995,1.763992 7.739998,-0.108002c18.935997,-11.124008 37.907997,-22.247986 56.87999,-33.372009c3.20401,-1.871994 4.932022,-4.859985 3.85202,-6.695999c-0.576004,-0.972 -1.116013,-1.944 -1.692017,-2.87999c-1.080002,-1.835999 -4.535995,-1.800003 -7.73999,0.071991c-18.936005,11.124008 -37.908005,22.248016 -56.880005,33.372009z" clip-rule="evenodd"/>
   <path transform="rotate(30.2279 69.648 88.72)" id="svg_16" stroke-width="0.036" stroke-miterlimit="10" stroke="#000000" fill-rule="evenodd" fill="#C6902C" d="m40.217888,100.541412c-3.060005,1.763992 -4.788002,4.5 -3.852005,6.048004c0.468002,0.827988 0.972,1.655991 1.440002,2.483994c0.935997,1.548004 4.139999,1.367996 7.164001,-0.395996c18.036003,-10.584 36.071999,-21.167999 54.14399,-31.751999c3.024002,-1.800003 4.752014,-4.5 3.81601,-6.084c-0.468002,-0.792007 -0.936005,-1.62001 -1.440002,-2.448013c-0.899994,-1.584 -4.139999,-1.403992 -7.164001,0.396011c-18.035995,10.584 -36.071999,21.132004 -54.107994,31.751999z" clip-rule="evenodd"/>
   <path transform="rotate(30.2279 69.691 97.822)" id="svg_17" stroke-width="0.036" stroke-miterlimit="10" stroke="#000000" fill-rule="evenodd" d="m63.253372,101.584869c2.087997,3.563995 6.659996,4.751999 10.188004,2.664001c3.563995,-2.088013 4.751999,-6.660004 2.663994,-10.223999c-2.087997,-3.528 -6.624001,-4.716003 -10.187996,-2.628006c-3.528,2.087997 -4.716003,6.623993 -2.664001,10.188004z" clip-rule="evenodd"/>
   <path transform="rotate(30.2279 69.547 287.649)" id="svg_18" stroke-width="0.036" stroke-miterlimit="10" stroke="#000000" fill-rule="evenodd" d="m51.547157,256.742767c-0.791992,0.468994 0.108002,3.42099 1.979004,6.623993c9.828003,16.73999 19.656006,33.480011 29.483994,50.221008c1.871994,3.20401 4.031998,5.436005 4.82399,4.967987s-0.107986,-3.419983 -1.979996,-6.623993c-9.828003,-16.73999 -19.654999,-33.480011 -29.483002,-50.256012c-1.871994,-3.168976 -4.031998,-5.401001 -4.82399,-4.932983z" clip-rule="evenodd"/>
   <path transform="rotate(30.2279 99.988 212.775)" id="svg_19" stroke-width="0.036" stroke-miterlimit="10" stroke="#000000" fill-rule="evenodd" d="m92.229065,218.507263c-0.070992,0.721008 2.160004,1.47699 4.932999,1.692017c1.475998,0.107971 2.951004,0.251984 4.428009,0.359985c2.770996,0.216003 5.075989,-0.181 5.146988,-0.899994c0.324005,-4.175995 0.685013,-8.388 1.009003,-12.600006c0.070999,-0.721008 -2.159988,-1.47699 -4.932999,-1.691986c-1.475998,-0.144012 -2.951996,-0.252014 -4.427994,-0.360016c-2.772003,-0.251984 -5.076004,0.144989 -5.14801,0.864014c-0.323982,4.211975 -0.68399,8.423981 -1.007996,12.635986z" clip-rule="evenodd"/>
   <path transform="rotate(30.2279 100.002 212.784)" id="svg_20" stroke-width="0.036" stroke-miterlimit="10" stroke="#000000" fill-rule="evenodd" fill="#C6902C" d="m93.306061,218.299744c-0.072006,0.685028 1.835999,1.367981 4.212006,1.548035c1.261002,0.108002 2.520996,0.215973 3.779999,0.324005c2.375992,0.179962 4.356003,-0.216003 4.427994,-0.864044c0.324005,-4.031006 0.64801,-8.027008 0.973007,-12.02301c0.034988,-0.684967 -1.835999,-1.403992 -4.248001,-1.583984c-1.261002,-0.107971 -2.520996,-0.216003 -3.779999,-0.287964c-2.376007,-0.216003 -4.356003,0.179993 -4.391998,0.863953c-0.325012,3.996033 -0.649002,7.991028 -0.973007,12.02301z" clip-rule="evenodd"/>
   <path transform="rotate(30.2279 79.016 243.939)" id="svg_21" stroke-width="0.036" stroke-miterlimit="10" stroke="#000000" fill-rule="evenodd" d="m74.047935,250.022766c-0.251999,0.791992 0.468002,1.692017 1.584,2.016998c0.576004,0.179993 1.152008,0.359009 1.764008,0.540009c1.080002,0.324005 2.195999,-0.036011 2.412003,-0.828003c1.403992,-4.644989 2.80899,-9.252014 4.175995,-13.895996c0.251999,-0.791992 -0.468002,-1.69101 -1.584,-2.015991c-0.574997,-0.180023 -1.151001,-0.360016 -1.764008,-0.540009c-1.080002,-0.324005 -2.195999,0.036011 -2.412003,0.791992c-1.403992,4.644012 -2.807999,9.287018 -4.175995,13.931z" clip-rule="evenodd"/>
   <path transform="rotate(30.2279 79.025 243.926)" id="svg_22" stroke-width="0.036" stroke-miterlimit="10" stroke="#000000" fill-rule="evenodd" fill="#C6902C" d="m74.559891,249.809418c-0.215988,0.756012 0.396011,1.583984 1.332001,1.872009c0.503998,0.144989 1.008011,0.287994 1.512009,0.432983c0.936996,0.287018 1.90799,-0.071991 2.123993,-0.828003c1.296005,-4.393005 2.628006,-8.820007 3.960007,-13.212006c0.215988,-0.756989 -0.359009,-1.583984 -1.332001,-1.871979c-0.503998,-0.14502 -1.008011,-0.324005 -1.475998,-0.468994c-0.972,-0.287018 -1.908005,0.107971 -2.124008,0.827972c-1.332001,4.429016 -2.664001,8.820038 -3.996002,13.248016z" clip-rule="evenodd"/>
   <path transform="rotate(30.2279 71.478 214.798)" id="svg_23" stroke-width="0.036" stroke-miterlimit="10" stroke="#000000" fill-rule="evenodd" d="m61.090057,210.909241c-1.152008,0.071991 -2.016006,1.403992 -1.980011,3.059998c0.036011,0.864014 0.072006,1.729004 0.108002,2.557007c0.072006,1.654999 1.044006,2.951996 2.195999,2.915985c6.804001,-0.251984 13.644012,-0.503998 20.448013,-0.755981c1.151993,-0.072021 2.051987,-1.403992 1.979996,-3.061005c-0.035995,-0.864014 -0.072006,-1.727997 -0.108002,-2.59201c-0.035995,-1.619995 -1.044006,-2.915985 -2.160004,-2.880005c-6.839981,0.252014 -13.643982,0.503998 -20.483994,0.756012z" clip-rule="evenodd"/>
   <path transform="rotate(30.2279 71.478 214.797)" id="svg_24" stroke-width="0.036" stroke-miterlimit="10" stroke="#000000" fill-rule="evenodd" fill="#C6902C" d="m61.630325,211.522308c-1.115997,0.035004 -1.944,1.223999 -1.908005,2.59198c0.035995,0.756012 0.072006,1.476013 0.072006,2.231018c0.071991,1.403992 1.007988,2.484009 2.087997,2.447998c6.479996,-0.216003 12.959991,-0.467987 19.475998,-0.720001c1.079994,-0.036011 1.944,-1.187988 1.871994,-2.59201c0,-0.756989 -0.035995,-1.47699 -0.071991,-2.231995c-0.036003,-1.367981 -0.972,-2.484009 -2.087997,-2.447998c-6.480011,0.252014 -12.960007,0.469025 -19.440002,0.721008z" clip-rule="evenodd"/>
   <path transform="rotate(30.2279 75.724 207.543)" id="svg_25" stroke-width="0.036" stroke-miterlimit="10" stroke="#000000" fill-rule="evenodd" d="m65.355743,203.673523c-1.152008,0.035004 -2.052002,1.402985 -1.980019,3.02301c0.036011,0.863983 0.036011,1.728973 0.072014,2.59198c0.072006,1.619995 1.044006,2.916016 2.195999,2.881012c6.839996,-0.253021 13.643997,-0.505005 20.483994,-0.757019c1.116013,-0.03598 2.016006,-1.402985 1.944,-3.02298c0,-0.864014 -0.035995,-1.729004 -0.071991,-2.59201c-0.072006,-1.619995 -1.044006,-2.915985 -2.195999,-2.881012c-6.804001,0.253021 -13.643997,0.505035 -20.447998,0.757019z" clip-rule="evenodd"/>
   <path transform="rotate(30.2279 75.715 207.558)" id="svg_26" stroke-width="0.036" stroke-miterlimit="10" stroke="#000000" fill-rule="evenodd" fill="#C6902C" d="m65.850914,204.282166c-1.080002,0.036011 -1.944,1.187988 -1.907997,2.59201c0.035995,0.720978 0.072006,1.47699 0.108002,2.195984c0.035995,1.404022 0.972,2.520996 2.051994,2.484009c6.515991,-0.252014 12.99601,-0.503998 19.476006,-0.720001c1.080002,-0.036011 1.943993,-1.225006 1.908005,-2.628998c-0.036011,-0.720001 -0.072006,-1.476013 -0.108002,-2.195007c-0.035995,-1.403992 -0.972,-2.484009 -2.052002,-2.447998c-6.479996,0.216003 -12.996002,0.467987 -19.476006,0.720001z" clip-rule="evenodd"/>
   <path transform="rotate(30.2279 89.335 231.38)" id="svg_27" stroke-width="0.036" stroke-miterlimit="10" stroke="#000000" fill-rule="evenodd" d="m81.521866,237.130096c-0.035995,0.721008 2.195999,1.513 5.003998,1.729004c1.475998,0.106995 2.951996,0.216003 4.428009,0.359009c2.80899,0.21698 5.112,-0.180023 5.184998,-0.899017c0.358994,-4.247986 0.68399,-8.459991 1.007996,-12.708008c0.072006,-0.720001 -2.160004,-1.47699 -4.968002,-1.729004c-1.47699,-0.106995 -2.951996,-0.215973 -4.429001,-0.322998c-2.807999,-0.251984 -5.147003,0.144012 -5.18399,0.863007c-0.360001,4.248016 -0.684006,8.496002 -1.044006,12.708008z" clip-rule="evenodd"/>
   <path transform="rotate(30.2279 89.35 231.389)" id="svg_28" stroke-width="0.036" stroke-miterlimit="10" stroke="#000000" fill-rule="evenodd" fill="#C6902C" d="m82.599556,236.922607c-0.035995,0.684998 1.871994,1.403992 4.283997,1.584015c1.26001,0.108002 2.520004,0.215973 3.779007,0.323975c2.411995,0.180023 4.392982,-0.215973 4.463982,-0.899994c0.32402,-4.031006 0.648026,-8.062988 0.973022,-12.096008c0.03598,-0.68399 -1.872009,-1.403992 -4.248009,-1.583984c-1.259995,-0.108002 -2.557007,-0.216003 -3.815994,-0.287994c-2.412003,-0.216003 -4.391998,0.179993 -4.464005,0.863983c-0.324005,4.03302 -0.647003,8.064026 -0.972,12.096008z" clip-rule="evenodd"/>
   <path transform="rotate(30.2279 95.427 222.055)" id="svg_29" stroke-width="0.036" stroke-miterlimit="10" stroke="#000000" fill-rule="evenodd" d="m82.580818,229.570068c4.175995,7.127991 13.284004,9.467987 20.375999,5.328003c7.09201,-4.177002 9.468002,-13.283997 5.292007,-20.377014c-4.141006,-7.09198 -13.248001,-9.467987 -20.376015,-5.290985c-7.055984,4.138977 -9.431992,13.246979 -5.291992,20.339996z" clip-rule="evenodd"/>
   <path transform="rotate(30.2279 95.563 222.191)" id="svg_30" stroke-width="0.036" stroke-miterlimit="10" stroke="#000000" fill-rule="evenodd" fill="#C6902C" d="m83.647781,229.153076c3.852005,6.623993 12.311996,8.819 18.899002,4.967987c6.587997,-3.888 8.783997,-12.348999 4.932007,-18.936981c-3.852005,-6.588013 -12.312012,-8.78302 -18.899002,-4.895996c-6.589005,3.85202 -8.785004,12.312012 -4.932007,18.86499z" clip-rule="evenodd"/>
   <path transform="rotate(30.2279 70.13 251.511)" id="svg_31" stroke-width="0.036" stroke-miterlimit="10" stroke="#000000" fill-rule="evenodd" d="m66.399948,252.014679c-0.145004,0.216003 0.468002,0.899994 1.367996,1.511993c0.468002,0.324005 0.972,0.612 1.439011,0.937012c0.899994,0.610992 1.764999,0.898987 1.944,0.68399c0.899002,-1.368011 1.800003,-2.770996 2.699997,-4.139984c0.179993,-0.216003 -0.468994,-0.900024 -1.367996,-1.513c-0.468002,-0.288025 -0.972,-0.611023 -1.440002,-0.936005c-0.899002,-0.612 -1.764008,-0.899994 -1.943008,-0.684021c-0.900009,1.404022 -1.800003,2.772003 -2.699997,4.140015z" clip-rule="evenodd"/>
   <path transform="rotate(30.2279 70.127 251.509)" id="svg_32" stroke-width="0.036" stroke-miterlimit="10" stroke="#000000" fill-rule="evenodd" fill="#C6902C" d="m66.796501,252.121094c-0.143997,0.252991 0.395996,0.828003 1.151993,1.332001c0.432007,0.287994 0.828003,0.575989 1.26001,0.828003c0.755997,0.503998 1.513,0.755981 1.655991,0.540009c0.863998,-1.296021 1.727997,-2.628021 2.59201,-3.924011c0.144989,-0.216003 -0.359009,-0.828003 -1.151001,-1.332001c-0.396011,-0.287994 -0.828003,-0.540009 -1.225006,-0.828003c-0.791992,-0.503998 -1.548004,-0.756012 -1.690994,-0.540009c-0.865005,1.332001 -1.729004,2.628021 -2.593002,3.924011z" clip-rule="evenodd"/>
   <path transform="rotate(30.2279 56.7168 208.092)" id="svg_33" stroke-width="0.036" stroke-miterlimit="10" stroke="#000000" fill-rule="evenodd" d="m52.306801,205.194366c-0.360001,0.108002 -0.324013,1.403992 0.072006,2.843994c0.215988,0.791992 0.431984,1.584015 0.647987,2.339996c0.431992,1.47702 1.043991,2.593018 1.44001,2.484009c2.231995,-0.612 4.427994,-1.26001 6.659981,-1.872009c0.360001,-0.108002 0.324005,-1.403992 -0.071983,-2.843994c-0.216003,-0.791992 -0.432014,-1.583984 -0.647995,-2.339996c-0.432007,-1.47699 -1.080002,-2.592987 -1.44001,-2.484009c-2.23201,0.613007 -4.428001,1.26001 -6.659996,1.872009z" clip-rule="evenodd"/>
   <path transform="rotate(30.2279 56.7094 208.105)" id="svg_34" stroke-width="0.036" stroke-miterlimit="10" stroke="#000000" fill-rule="evenodd" fill="#C6902C" d="m52.623398,205.696381c-0.360001,0.108002 -0.360001,1.223999 0,2.484009c0.180008,0.647003 0.360001,1.332001 0.540009,1.979004c0.360001,1.259979 0.935989,2.195984 1.29599,2.123993c2.124008,-0.610992 4.212006,-1.187988 6.335999,-1.799988c0.360001,-0.108002 0.360001,-1.188019 0,-2.448029c-0.179993,-0.68399 -0.360008,-1.332001 -0.540001,-2.015991c-0.359993,-1.26001 -0.935997,-2.195984 -1.295998,-2.087982c-2.124008,0.577972 -4.212006,1.188995 -6.335999,1.764984z" clip-rule="evenodd"/>
   <path transform="rotate(30.2279 62.0251 199.039)" id="svg_35" stroke-width="0.036" stroke-miterlimit="10" stroke="#000000" fill-rule="evenodd" d="m58.954224,194.755829c-0.395996,-0.036011 -0.828003,1.187988 -0.972,2.699982c-0.071991,0.792023 -0.143997,1.584015 -0.216011,2.412018c-0.143997,1.511993 0.072014,2.770996 0.432014,2.807983c2.303993,0.216003 4.607994,0.432007 6.912003,0.647003c0.360001,0.036011 0.791985,-1.187988 0.935989,-2.699005c0.072006,-0.791992 0.144012,-1.619995 0.252014,-2.411987c0.107986,-1.511993 -0.072014,-2.772003 -0.468002,-2.80899c-2.304001,-0.214996 -4.572014,-0.431 -6.876007,-0.647003z" clip-rule="evenodd"/>
   <path transform="rotate(30.2279 62.021 199.039)" id="svg_36" stroke-width="0.036" stroke-miterlimit="10" stroke="#000000" fill-rule="evenodd" fill="#C6902C" d="m59.062012,195.330688c-0.360001,-0.036011 -0.755989,1.007996 -0.899994,2.303986c-0.036011,0.684021 -0.107994,1.368011 -0.180008,2.088013c-0.107994,1.29599 0.072014,2.376007 0.432007,2.411987c2.195999,0.216003 4.391998,0.396027 6.587997,0.612c0.360008,0.036011 0.755997,-1.008972 0.863998,-2.304993c0.072014,-0.68399 0.143997,-1.367981 0.18,-2.052002c0.144012,-1.332001 -0.071991,-2.411987 -0.431999,-2.447998c-2.195999,-0.179993 -4.356003,-0.395996 -6.552002,-0.610992z" clip-rule="evenodd"/>
   <path transform="rotate(30.2279 106.568 198.314)" id="svg_37" stroke-width="0.036" stroke-miterlimit="10" stroke="#000000" fill-rule="evenodd" d="m100.980103,192.782745c-0.287994,-0.755981 0.324005,-1.729004 1.367981,-2.195984c0.576019,-0.216003 1.152008,-0.468018 1.692017,-0.684998c1.078979,-0.468018 2.195007,-0.216003 2.520004,0.541016c1.871994,4.463989 3.707993,8.927979 5.580002,13.427979c0.323975,0.756012 -0.288025,1.727997 -1.368027,2.160004c-0.575974,0.252014 -1.115982,0.467987 -1.690979,0.720001c-1.080002,0.432007 -2.196014,0.179993 -2.520996,-0.575989c-1.836014,-4.465027 -3.708023,-8.929016 -5.580002,-13.392029z" clip-rule="evenodd"/>
   <path transform="rotate(30.2279 106.565 198.306)" id="svg_38" stroke-width="0.036" stroke-miterlimit="10" stroke="#000000" fill-rule="evenodd" fill="#C6902C" d="m101.523361,192.92337c-0.28801,-0.720001 0.215988,-1.620056 1.115997,-1.979034c0.503998,-0.21698 0.972,-0.395996 1.475998,-0.612c0.899994,-0.395966 1.908005,-0.108002 2.195999,0.612c1.764008,4.248016 3.528,8.496033 5.292007,12.743011c0.287994,0.720978 -0.180008,1.619965 -1.116013,2.016998c-0.467987,0.179993 -0.972,0.395966 -1.438995,0.575989c-0.936996,0.395996 -1.908005,0.106995 -2.195999,-0.612c-1.763992,-4.249023 -3.528992,-8.497009 -5.328995,-12.744965z" clip-rule="evenodd"/>
   <path transform="rotate(30.2279 107.576 186.666)" id="svg_39" stroke-width="0.036" stroke-miterlimit="10" stroke="#000000" fill-rule="evenodd" d="m103.813141,186.557373c-0.180008,-0.216003 0.360001,-0.935974 1.223999,-1.656006c0.432999,-0.359009 0.899994,-0.720001 1.332001,-1.079987c0.863998,-0.684021 1.692001,-1.079987 1.835999,-0.863007c1.044998,1.26001 2.089005,2.556 3.132996,3.815002c0.180008,0.216003 -0.360001,0.973022 -1.187988,1.656006c-0.468002,0.359985 -0.899002,0.720001 -1.332001,1.079987c-0.864014,0.68399 -1.69101,1.079987 -1.872009,0.864014c-1.044998,-1.26001 -2.089005,-2.556 -3.132996,-3.81601z" clip-rule="evenodd"/>
   <path transform="rotate(30.2279 107.591 186.674)" id="svg_40" stroke-width="0.036" stroke-miterlimit="10" stroke="#000000" fill-rule="evenodd" fill="#C6902C" d="m104.208115,186.386444c-0.144989,-0.181 0.287003,-0.828003 1.008011,-1.440002c0.395996,-0.324005 0.755997,-0.612 1.151001,-0.936005c0.720993,-0.575989 1.439987,-0.899994 1.619995,-0.684998c0.972992,1.188019 1.979996,2.412018 2.987991,3.636993c0.143997,0.179993 -0.28801,0.827026 -1.008011,1.439026c-0.395996,0.287964 -0.791992,0.612 -1.151993,0.936981c-0.719986,0.575012 -1.438995,0.899017 -1.619995,0.684021c-1.008011,-1.188019 -1.980011,-2.412018 -2.987,-3.636017z" clip-rule="evenodd"/>
   <path transform="rotate(30.2279 31.4614 182.627)" id="svg_41" stroke-width="0.036" stroke-miterlimit="10" stroke="#000000" fill-rule="evenodd" d="m57.120964,273.113312c-17.31601,-19.979004 -30.096008,-38.015991 -38.628014,-55.223999c-8.531998,-17.135986 -11.231995,-31.679993 -12.420002,-46.944c-1.332001,-15.40799 2.556,-31.643997 4.860002,-44.423981c2.267998,-12.779999 5.148005,-23.184021 8.784007,-31.644012l4.463997,-2.736023l32.94001,180.972015z" clip-rule="evenodd"/>
   <path transform="rotate(30.2279 31.7835 180.545)" id="svg_42" stroke-width="0.036" stroke-miterlimit="10" stroke="#000000" fill-rule="evenodd" fill="#C0C0C0" d="m52.669174,262.336334c-12.024002,-14.398987 -21.348015,-28.403015 -28.260006,-42.839996c-6.947998,-14.363007 -11.375999,-28.188019 -12.996002,-42.983002c-1.727997,-15.048004 1.295998,-32.97702 3.096001,-46.008041c1.800003,-13.140961 4.32,-23.399979 7.704002,-31.751984l2.591995,1.080002l27.86401,162.503021z" clip-rule="evenodd"/>
  </g>
 </g>
</svg>